<svg xmlns="http://www.w3.org/2000/svg" xmlns:xlink="http://www.w3.org/1999/xlink" width="266" zoomAndPan="magnify" viewBox="0 0 199.5 54.75" height="73" preserveAspectRatio="xMidYMid meet" version="1.0"><defs><g/></defs><path fill="#38b6ff" d="M 23.394531 23.1875 C 15.042969 19.765625 9.703125 31.953125 17.691406 36.988281 C 12.574219 34.804688 11.007812 27.140625 16.117188 23.472656 C 9.539062 23.640625 7.441406 31.746094 9.476562 36.886719 C 4.054688 26.636719 14.691406 16.722656 25.644531 23.714844 C 23.566406 20.808594 20.164062 18.914062 16.316406 18.914062 C 11.535156 18.914062 7.433594 21.847656 5.714844 26.011719 C 5.765625 25.4375 5.847656 24.863281 5.964844 24.289062 C 6.105469 23.621094 6.289062 22.957031 6.527344 22.296875 C 9.261719 14.65625 17.671875 10.679688 25.3125 13.414062 C 32.953125 16.148438 36.929688 24.558594 34.195312 32.199219 C 33.828125 33.226562 33.355469 34.191406 32.796875 35.078125 C 24.117188 37.980469 18.871094 33.875 18.871094 33.875 C 22.351562 38.890625 30.183594 36.859375 31.882812 36.371094 C 27.277344 38.601562 19.402344 38.027344 17.308594 32.582031 C 15.53125 27.964844 18.625 21.929688 23.394531 23.1875 Z M 35.066406 32.511719 C 37.976562 24.386719 33.746094 15.445312 25.625 12.539062 C 17.5 9.632812 8.558594 13.859375 5.652344 21.984375 C 2.746094 30.109375 6.972656 39.050781 15.097656 41.957031 C 23.21875 44.863281 32.160156 40.636719 35.066406 32.511719 Z M 35.066406 32.511719 " fill-opacity="1" fill-rule="evenodd"/><g fill="#ffffff" fill-opacity="1"><g transform="translate(37.982043, 36.906446)"><g><path d="M 13.511719 -20.527344 L 1.617188 -20.527344 L 1.617188 0 L 6.296875 0 L 6.296875 -8.238281 L 12.964844 -8.238281 L 12.964844 -12.34375 L 6.296875 -12.34375 L 6.296875 -16.421875 L 13.511719 -16.421875 Z M 13.511719 -20.527344 "/></g></g></g><g fill="#ffffff" fill-opacity="1"><g transform="translate(53.110556, 36.906446)"><g><path d="M 1.890625 -17.195312 C 1.890625 -16 2.863281 -15.003906 4.007812 -15.003906 C 5.152344 -15.003906 6.121094 -16 6.121094 -17.195312 C 6.121094 -18.390625 5.152344 -19.382812 4.007812 -19.382812 C 2.863281 -19.382812 1.890625 -18.390625 1.890625 -17.195312 Z M 1.742188 0 L 6.222656 0 L 6.222656 -13.089844 L 1.742188 -13.089844 Z M 1.742188 0 "/></g></g></g><g fill="#ffffff" fill-opacity="1"><g transform="translate(61.097812, 36.906446)"><g><path d="M 6.394531 -6.371094 C 6.394531 -8.136719 7.714844 -9.382812 9.382812 -9.382812 C 10.800781 -9.382812 11.992188 -8.410156 12.269531 -6.992188 L 12.269531 -5.722656 C 12.019531 -4.328125 10.875 -3.382812 9.382812 -3.382812 C 7.589844 -3.382812 6.394531 -4.628906 6.394531 -6.371094 Z M 16.648438 0 L 16.648438 -21.398438 L 12.242188 -21.398438 L 12.242188 -13.0625 C 10.527344 -13.1875 8.808594 -13.140625 8.0625 -13.140625 C 4.328125 -13.140625 1.71875 -10.101562 1.71875 -6.371094 C 1.71875 -2.636719 4.328125 0.375 8.0625 0.375 C 9.804688 0.375 11.347656 -0.398438 12.292969 -1.441406 L 12.292969 0 Z M 16.648438 0 "/></g></g></g><g fill="#ffffff" fill-opacity="1"><g transform="translate(79.560569, 36.906446)"><g><path d="M 6.34375 -6.371094 C 6.34375 -8.136719 7.664062 -9.382812 9.332031 -9.382812 C 10.972656 -9.382812 12.292969 -8.136719 12.292969 -6.371094 C 12.292969 -4.628906 11.046875 -3.382812 9.332031 -3.382812 C 7.539062 -3.382812 6.34375 -4.628906 6.34375 -6.371094 Z M 16.597656 -11.296875 C 16.597656 -13.460938 9.730469 -13.140625 8.011719 -13.140625 C 4.28125 -13.140625 1.667969 -10.101562 1.667969 -6.371094 C 1.667969 -2.636719 4.28125 0.375 8.011719 0.375 C 9.753906 0.375 11.296875 -0.398438 12.242188 -1.441406 L 12.242188 0 L 16.597656 0 Z M 16.597656 -11.296875 "/></g></g></g><g fill="#ffffff" fill-opacity="1"><g transform="translate(97.849151, 36.906446)"><g><path d="M 3.183594 -12.765625 L 1.34375 -12.765625 L 1.34375 -9.40625 L 3.183594 -9.40625 L 3.183594 -4.503906 C 3.183594 -2.238281 4.03125 0.375 7.539062 0.375 C 9.355469 0.375 10.773438 -0.421875 10.773438 -0.421875 L 9.679688 -3.980469 C 9.679688 -3.980469 9.15625 -3.582031 8.585938 -3.582031 C 7.886719 -3.582031 7.589844 -4.15625 7.589844 -5.351562 L 7.589844 -9.40625 L 10.277344 -9.40625 L 10.277344 -12.765625 L 7.589844 -12.765625 L 7.589844 -17.519531 L 3.183594 -17.519531 Z M 3.183594 -12.765625 "/></g></g></g><g fill="#ffffff" fill-opacity="1"><g transform="translate(109.966888, 36.906446)"><g><path d="M 1.890625 -17.195312 C 1.890625 -16 2.863281 -15.003906 4.007812 -15.003906 C 5.152344 -15.003906 6.121094 -16 6.121094 -17.195312 C 6.121094 -18.390625 5.152344 -19.382812 4.007812 -19.382812 C 2.863281 -19.382812 1.890625 -18.390625 1.890625 -17.195312 Z M 1.742188 0 L 6.222656 0 L 6.222656 -13.089844 L 1.742188 -13.089844 Z M 1.742188 0 "/></g></g></g><g fill="#38b6ff" fill-opacity="1"><g transform="translate(119.036929, 36.906446)"><g><path d="M 6.570312 -11.746094 L 6.570312 -16.820312 L 7.167969 -16.820312 C 9.03125 -16.820312 10.75 -16.695312 10.75 -14.285156 C 10.75 -11.871094 9.03125 -11.746094 7.167969 -11.746094 Z M 6.570312 -8.609375 L 7.167969 -8.609375 C 8.1875 -8.609375 11.421875 -8.484375 11.421875 -6.070312 C 11.421875 -3.65625 9.03125 -3.535156 7.167969 -3.535156 L 6.570312 -3.535156 Z M 14.058594 -10.425781 C 15.128906 -11.421875 15.75 -12.839844 15.75 -14.582031 C 15.75 -18.390625 13.386719 -20.429688 9.382812 -20.429688 L 1.667969 -20.429688 L 1.667969 0 L 9.382812 0 C 13.386719 0 16.421875 -1.964844 16.421875 -5.773438 C 16.421875 -7.839844 15.527344 -9.40625 14.058594 -10.425781 Z M 14.058594 -10.425781 "/></g></g></g><g fill="#38b6ff" fill-opacity="1"><g transform="translate(137.126446, 36.906446)"><g><path d="M 6.34375 -6.371094 C 6.34375 -8.136719 7.664062 -9.382812 9.332031 -9.382812 C 10.972656 -9.382812 12.292969 -8.136719 12.292969 -6.371094 C 12.292969 -4.628906 11.046875 -3.382812 9.332031 -3.382812 C 7.539062 -3.382812 6.34375 -4.628906 6.34375 -6.371094 Z M 16.597656 -11.296875 C 16.597656 -13.460938 9.730469 -13.140625 8.011719 -13.140625 C 4.28125 -13.140625 1.667969 -10.101562 1.667969 -6.371094 C 1.667969 -2.636719 4.28125 0.375 8.011719 0.375 C 9.753906 0.375 11.296875 -0.398438 12.242188 -1.441406 L 12.242188 0 L 16.597656 0 Z M 16.597656 -11.296875 "/></g></g></g><g fill="#38b6ff" fill-opacity="1"><g transform="translate(155.415029, 36.906446)"><g><path d="M 6.34375 0 L 6.34375 -6.070312 C 6.34375 -8.585938 7.042969 -9.554688 8.882812 -9.554688 C 10.726562 -9.554688 11.371094 -8.585938 11.371094 -6.070312 L 11.371094 0 L 15.777344 0 L 15.777344 -7.140625 C 15.777344 -11.421875 13.660156 -13.140625 8.882812 -13.140625 C 7.265625 -13.140625 6.097656 -12.789062 5.25 -12.21875 L 5.25 -12.941406 L 1.765625 -12.941406 L 1.765625 0 Z M 6.34375 0 "/></g></g></g><g fill="#38b6ff" fill-opacity="1"><g transform="translate(172.982016, 36.906446)"><g><path d="M 16.050781 -12.765625 L 10.328125 -12.765625 L 5.871094 -8.3125 L 5.871094 -21.398438 L 1.46875 -21.398438 L 1.46875 0 L 5.871094 0 L 5.871094 -5.101562 L 10.972656 0 L 16.648438 0 L 9.976562 -6.667969 Z M 16.050781 -12.765625 "/></g></g></g></svg>